<svg xmlns="http://www.w3.org/2000/svg" width="55.153" height="55.036" viewBox="0 0 55.153 55.036">
  <g id="Group_25" data-name="Group 25" transform="translate(-292.453 -417.478)">
    <g id="Group_24" data-name="Group 24">
      <path id="Path_874" data-name="Path 874" d="M311.331,434.382a6.471,6.471,0,0,0-1.951,6.887,16.294,16.294,0,0,0,4.076,6.391,46.348,46.348,0,0,0,9.266,7.951c2.475,1.564,5.648,2.846,8.327,1.627a9.77,9.77,0,0,0,3.222-2.828" fill="none" stroke="#000" stroke-linecap="round" stroke-linejoin="round" stroke-miterlimit="10" stroke-width="3"/>
      <path id="Path_875" data-name="Path 875" d="M311.669,433.916l4.11,3.916" fill="none" stroke="#000" stroke-linecap="round" stroke-miterlimit="10" stroke-width="3"/>
      <path id="Path_876" data-name="Path 876" d="M316.287,438.383a2.1,2.1,0,0,0-.537,2.688,8.23,8.23,0,0,0,2.02,2.252c2.693,2.472,4.736,5.737,8.08,7.322a3.6,3.6,0,0,0,1.973.433,1.537,1.537,0,0,0,1.392-1.238" fill="none" stroke="#000" stroke-linecap="round" stroke-linejoin="round" stroke-miterlimit="10" stroke-width="3"/>
      <path id="Path_877" data-name="Path 877" d="M328.989,449.825l4.053,4.067" fill="none" stroke="#000" stroke-linecap="round" stroke-miterlimit="10" stroke-width="3"/>
    </g>
    <path id="Path_878" data-name="Path 878" d="M317.856,419.766c-6.055-1.129-12.129,2.312-16.208,6.739-5.523,5.993-8.564,14.214-7.4,22.125a25.83,25.83,0,0,0,10.771,17.055,30.417,30.417,0,0,0,20.206,5.165,20.92,20.92,0,0,0,19.972-17.674c1.872-8.282.543-17.4-4.621-24.285s-14.388-11.1-23.105-9.592" fill="none" stroke="#000" stroke-linecap="round" stroke-linejoin="round" stroke-miterlimit="10" stroke-width="3"/>
  </g>
</svg>
