<svg xmlns="http://www.w3.org/2000/svg" width="55.153" height="55.036" viewBox="0 0 55.153 55.036">
  <g id="Group_31" data-name="Group 31" transform="translate(-733.741 -415.478)">
    <g id="Group_30" data-name="Group 30">
      <path id="Path_896" data-name="Path 896" d="M749.6,440.736a157.329,157.329,0,0,0-.217,19.252l-.136-.829" fill="none" stroke="#000" stroke-linecap="round" stroke-linejoin="round" stroke-miterlimit="10" stroke-width="3"/>
      <path id="Path_897" data-name="Path 897" d="M748.61,460.045a16.851,16.851,0,0,0,8.592-6.113" fill="none" stroke="#000" stroke-linecap="round" stroke-miterlimit="10" stroke-width="3"/>
      <path id="Path_898" data-name="Path 898" d="M757.161,454.394a37.993,37.993,0,0,1,6.94,5.182" fill="none" stroke="#000" stroke-linecap="round" stroke-miterlimit="10" stroke-width="3"/>
      <path id="Path_899" data-name="Path 899" d="M764.327,459.79c1.556-.29,2.7-1.52,3.725-2.679l3.854-4.365-.146.293" fill="none" stroke="#000" stroke-linecap="round" stroke-linejoin="round" stroke-miterlimit="10" stroke-width="3"/>
      <path id="Path_900" data-name="Path 900" d="M749.67,440.638a34.738,34.738,0,0,0,7.356-6.448" fill="none" stroke="#000" stroke-linecap="round" stroke-miterlimit="10" stroke-width="3"/>
      <path id="Path_901" data-name="Path 901" d="M769.129,423.22a5,5,0,0,0-4.8,1.124,6.918,6.918,0,0,0-1.4,2.081,7.326,7.326,0,0,0-.768,2.672,9.915,9.915,0,0,0,1.537,4.95l3.619,6.991a.4.4,0,0,1-.357-.524" fill="none" stroke="#000" stroke-linecap="round" stroke-linejoin="round" stroke-miterlimit="10" stroke-width="3"/>
      <path id="Path_902" data-name="Path 902" d="M769.726,423.432A5.8,5.8,0,0,1,772.1,428.7a16.837,16.837,0,0,1-1.736,5.734l-3.221,7.351.019-.833" fill="none" stroke="#000" stroke-linecap="round" stroke-linejoin="round" stroke-miterlimit="10" stroke-width="3"/>
      <path id="Path_903" data-name="Path 903" d="M756.93,434.587l6.619,4.829" fill="none" stroke="#000" stroke-linecap="round" stroke-miterlimit="10" stroke-width="3"/>
      <path id="Path_904" data-name="Path 904" d="M763.95,439.67l1.8-2.125" fill="none" stroke="#000" stroke-linecap="round" stroke-miterlimit="10" stroke-width="3"/>
      <path id="Path_905" data-name="Path 905" d="M771.835,452.186a19.971,19.971,0,0,0,.319-2.308c.083-1.062.081-2.129.078-3.194l-.032-13.919" fill="none" stroke="#000" stroke-linecap="round" stroke-linejoin="round" stroke-miterlimit="10" stroke-width="3"/>
      <path id="Path_906" data-name="Path 906" d="M771.685,432.3l-.475.455" fill="none" stroke="#000" stroke-linecap="round" stroke-miterlimit="10" stroke-width="3"/>
      <path id="Path_907" data-name="Path 907" d="M756.634,437.077l.18,12.517" fill="none" stroke="#000" stroke-linecap="round" stroke-miterlimit="10" stroke-width="3"/>
      <path id="Path_908" data-name="Path 908" d="M764.464,443.441q.389,6.6.362,13.2" fill="none" stroke="#000" stroke-linecap="round" stroke-miterlimit="10" stroke-width="3"/>
    </g>
    <path id="Path_909" data-name="Path 909" d="M759.144,417.766c-6.055-1.129-12.128,2.312-16.207,6.739-5.523,5.993-8.564,14.214-7.4,22.125A25.827,25.827,0,0,0,746.3,463.685a30.414,30.414,0,0,0,20.206,5.165,20.922,20.922,0,0,0,19.972-17.674c1.872-8.282.542-17.4-4.622-24.285s-14.388-11.1-23.1-9.592" fill="none" stroke="#000" stroke-linecap="round" stroke-linejoin="round" stroke-miterlimit="10" stroke-width="3"/>
  </g>
</svg>
