<svg xmlns="http://www.w3.org/2000/svg" width="55.153" height="55.036" viewBox="0 0 55.153 55.036">
  <g id="Group_27" data-name="Group 27" transform="translate(-439.742 -414.478)">
    <g id="Group_26" data-name="Group 26">
      <path id="Path_879" data-name="Path 879" d="M472.758,426.961c-.523-.915-1.909-.9-2.944-.576a8.741,8.741,0,0,0-4.92,3.9c-1.458,2.531-1.447,5.572-1.4,8.461,0,.153.027.338.174.4s.285-.218.127-.23" fill="none" stroke="#000" stroke-linecap="round" stroke-linejoin="round" stroke-miterlimit="10" stroke-width="3"/>
      <path id="Path_880" data-name="Path 880" d="M473.213,426.529l-.838,5.322a1.549,1.549,0,0,0-1.791.113,3.324,3.324,0,0,0-1.013,1.55,10.448,10.448,0,0,0-.554,5.146" fill="none" stroke="#000" stroke-linecap="round" stroke-linejoin="round" stroke-miterlimit="10" stroke-width="3"/>
      <path id="Path_881" data-name="Path 881" d="M469.124,439.282q2.829-.3,5.67-.471l-.545,4.536" fill="none" stroke="#000" stroke-linecap="round" stroke-linejoin="round" stroke-miterlimit="10" stroke-width="3"/>
      <path id="Path_882" data-name="Path 882" d="M463.129,438.7a3.6,3.6,0,0,0-3.082.222q.059,3.229.049,6.458a4.734,4.734,0,0,0,2.6-.434" fill="none" stroke="#000" stroke-linecap="round" stroke-linejoin="round" stroke-miterlimit="10" stroke-width="3"/>
      <path id="Path_883" data-name="Path 883" d="M463.391,445.18q.174,6.894.008,13.79l4.3-.352" fill="none" stroke="#000" stroke-linecap="round" stroke-linejoin="round" stroke-miterlimit="10" stroke-width="3"/>
      <path id="Path_884" data-name="Path 884" d="M468.8,444.494l.219,13.914.1-1.4" fill="none" stroke="#000" stroke-linecap="round" stroke-linejoin="round" stroke-miterlimit="10" stroke-width="3"/>
      <path id="Path_885" data-name="Path 885" d="M469.12,444.639l5.222.28a7.648,7.648,0,0,0-.429-2.708" fill="none" stroke="#000" stroke-linecap="round" stroke-linejoin="round" stroke-miterlimit="10" stroke-width="3"/>
    </g>
    <path id="Path_886" data-name="Path 886" d="M465.144,416.766c-6.055-1.129-12.128,2.312-16.207,6.739-5.523,5.993-8.564,14.214-7.4,22.125A25.827,25.827,0,0,0,452.3,462.685a30.414,30.414,0,0,0,20.206,5.165,20.922,20.922,0,0,0,19.972-17.674c1.872-8.282.542-17.4-4.622-24.285s-14.388-11.1-23.1-9.592" fill="none" stroke="#000" stroke-linecap="round" stroke-linejoin="round" stroke-miterlimit="10" stroke-width="3"/>
  </g>
</svg>
