<svg xmlns="http://www.w3.org/2000/svg" width="55.153" height="55.036" viewBox="0 0 55.153 55.036">
  <g id="Group_29" data-name="Group 29" transform="translate(-589.742 -416.478)">
    <g id="Group_28" data-name="Group 28">
      <path id="Path_887" data-name="Path 887" d="M602.4,433.31a189.118,189.118,0,0,0,.194,22.749" fill="none" stroke="#000" stroke-linecap="round" stroke-miterlimit="10" stroke-width="3"/>
      <path id="Path_888" data-name="Path 888" d="M602,432.721q15.79-.869,31.622-.382" fill="none" stroke="#000" stroke-linecap="round" stroke-miterlimit="10" stroke-width="3"/>
      <path id="Path_889" data-name="Path 889" d="M634.317,432.17l-.625,22.74" fill="none" stroke="#000" stroke-linecap="round" stroke-miterlimit="10" stroke-width="3"/>
      <path id="Path_890" data-name="Path 890" d="M601.739,456.571a177.151,177.151,0,0,0,31.882-.825" fill="none" stroke="#000" stroke-linecap="round" stroke-miterlimit="10" stroke-width="3"/>
      <path id="Path_891" data-name="Path 891" d="M602.178,433.57,612.8,443.584c1.654,1.56,3.309,3.12,5,4.641" fill="none" stroke="#000" stroke-linecap="round" stroke-linejoin="round" stroke-miterlimit="10" stroke-width="3"/>
      <path id="Path_892" data-name="Path 892" d="M617.373,448.674a147.509,147.509,0,0,0,17.006-16.033c-.027-.206-.42-.207-.448,0" fill="none" stroke="#000" stroke-linecap="round" stroke-linejoin="round" stroke-miterlimit="10" stroke-width="3"/>
      <path id="Path_893" data-name="Path 893" d="M612.179,443.286q-4.128,6.756-8.834,13.168" fill="none" stroke="#000" stroke-linecap="round" stroke-miterlimit="10" stroke-width="3"/>
      <path id="Path_894" data-name="Path 894" d="M623.883,443.765a86.2,86.2,0,0,0,8.483,11.891" fill="none" stroke="#000" stroke-linecap="round" stroke-miterlimit="10" stroke-width="3"/>
    </g>
    <path id="Path_895" data-name="Path 895" d="M615.144,418.766c-6.055-1.129-12.128,2.312-16.207,6.739-5.523,5.993-8.564,14.214-7.4,22.125A25.827,25.827,0,0,0,602.3,464.685a30.414,30.414,0,0,0,20.206,5.165,20.922,20.922,0,0,0,19.972-17.674c1.872-8.282.542-17.4-4.622-24.285s-14.388-11.1-23.1-9.592" fill="none" stroke="#000" stroke-linecap="round" stroke-linejoin="round" stroke-miterlimit="10" stroke-width="3"/>
  </g>
</svg>
