<svg xmlns="http://www.w3.org/2000/svg" width="11.906" height="28.974" viewBox="0 0 11.906 28.974">
  <path id="Path_914" data-name="Path 914" d="M14.671,10.149a32.082,32.082,0,0,0-3.4-3.392c-.359-.306-.768-.7-1.208-1.055a1.607,1.607,0,0,0-1.062-.71,2.407,2.407,0,0,0-1.242-.309C6.478,4.767,5.99,5.939,5.54,6.96L3.3,12.058c-.771,1.751,1.813,3.279,2.59,1.514q.727-1.648,1.453-3.3l.238-.539c.616,7.477.9,14.961.8,22.471a1.5,1.5,0,0,0,3,0c.1-7.38-.17-14.735-.763-22.083.7.717,1.347,1.465,1.942,2.148C13.819,13.729,15.934,11.6,14.671,10.149Z" transform="translate(-3.153 -4.679)"/>
</svg>
